<svg width="27" height="17" viewBox="0 0 27 17" fill="none" xmlns="http://www.w3.org/2000/svg">
<path d="M2.5 2.25H24.5C24.6381 2.25 24.75 2.36193 24.75 2.5V14.5C24.75 14.6381 24.6381 14.75 24.5 14.75H2.5C2.36193 14.75 2.25 14.6381 2.25 14.5V2.5C2.25 2.36193 2.36193 2.25 2.5 2.25ZM2.5 0.75C1.5335 0.75 0.75 1.5335 0.75 2.5V14.5C0.75 15.4665 1.5335 16.25 2.5 16.25H24.5C25.4665 16.25 26.25 15.4665 26.25 14.5V2.5C26.25 1.5335 25.4665 0.75 24.5 0.75H2.5Z" fill="white" stroke="white" stroke-width="0.5" stroke-linejoin="round"/>
<path d="M2.97146 2.50002L13.0612 8.07208L23.151 2.50002H2.97146ZM13.6655 9.4519C13.2894 9.65959 12.833 9.65959 12.4569 9.4519L1.39734 3.34425C0.266763 2.71989 0.710108 1.00002 2.00163 1.00002H24.1208C25.4124 1.00002 25.8557 2.71989 24.7251 3.34425L13.6655 9.4519Z" fill="white" stroke="white" stroke-width="0.5" stroke-linejoin="round"/>
</svg>
